<?xml version="1.0" standalone="no"?>
<!DOCTYPE svg PUBLIC "-//W3C//DTD SVG 20010904//EN"
 "http://www.w3.org/TR/2001/REC-SVG-20010904/DTD/svg10.dtd">
<svg version="1.0" xmlns="http://www.w3.org/2000/svg"
 width="700.000000pt" height="700.000000pt" viewBox="0 0 700.000000 700.000000"
 preserveAspectRatio="xMidYMid meet">
<metadata>
Created by potrace 1.14, written by Peter Selinger 2001-2017
</metadata>
<g transform="translate(0.000000,700.000000) scale(0.100000,-0.100000)"
fill="#000000" stroke="none">
<path d="M3955 6595 c-88 -15 -102 -17 -255 -39 -111 -16 -169 -25 -210 -31
-14 -3 -56 -9 -95 -14 -85 -12 -142 -21 -175 -26 -14 -3 -119 -18 -235 -35
-115 -17 -235 -35 -265 -40 -30 -5 -75 -12 -100 -15 -25 -3 -74 -11 -110 -16
-78 -13 -76 -13 -222 -33 -65 -10 -125 -19 -135 -20 -10 -2 -43 -7 -73 -11
-30 -4 -64 -9 -75 -11 -11 -2 -40 -6 -65 -9 -25 -3 -56 -8 -70 -10 -14 -3 -43
-7 -65 -11 -22 -3 -80 -11 -130 -19 -49 -8 -110 -17 -135 -20 -61 -8 -100 -14
-130 -20 -14 -3 -47 -7 -75 -10 -155 -18 -345 -90 -483 -184 -134 -91 -281
-261 -352 -407 -38 -79 -78 -194 -86 -244 -3 -19 -9 -48 -13 -65 -13 -48 -10
-274 5 -355 7 -41 16 -102 19 -135 3 -33 8 -67 11 -76 3 -10 6 -30 8 -46 4
-28 23 -161 31 -213 2 -14 9 -56 15 -95 6 -38 13 -88 16 -110 3 -22 9 -65 14
-95 6 -30 12 -73 15 -95 2 -22 7 -58 11 -80 3 -22 7 -52 10 -67 2 -16 6 -40 8
-55 3 -16 7 -46 11 -68 3 -22 8 -56 10 -75 4 -35 14 -98 21 -135 2 -11 6 -40
9 -65 3 -25 10 -70 15 -100 9 -52 19 -121 25 -165 1 -11 5 -40 9 -65 4 -25 9
-56 11 -70 4 -30 15 -106 20 -140 3 -14 9 -59 15 -100 6 -41 16 -102 21 -135
5 -33 11 -80 14 -105 3 -25 10 -67 15 -95 5 -27 12 -72 16 -100 3 -27 8 -57 9
-66 2 -9 6 -40 10 -69 17 -132 68 -209 175 -258 146 -69 316 -3 384 148 31 69
30 138 -4 340 -10 58 -15 94 -26 175 -3 28 -8 59 -10 70 -2 11 -15 97 -29 190
-13 94 -27 186 -30 205 -21 137 -47 312 -51 345 -3 22 -9 65 -15 95 -5 30 -11
76 -14 101 -3 26 -8 57 -10 70 -3 13 -7 41 -10 64 -10 69 -13 89 -20 133 -10
60 -12 80 -19 137 -4 28 -9 61 -11 75 -3 14 -8 42 -11 64 -3 21 -7 46 -9 55
-1 9 -6 41 -10 71 -4 30 -9 64 -11 74 -3 16 -15 100 -29 201 -8 58 -36 243
-40 265 -20 105 -24 225 -12 295 12 69 72 177 132 237 88 88 193 133 355 153
68 9 90 12 137 19 21 3 56 9 78 11 22 3 51 8 65 10 51 9 91 15 365 55 354 52
334 49 440 65 50 8 110 17 135 20 25 3 52 8 60 10 8 2 38 6 65 10 28 3 75 10
105 15 50 8 91 14 167 25 15 2 57 8 93 14 77 12 104 16 275 41 165 24 204 30
235 35 14 3 61 10 105 15 93 13 122 17 230 35 256 42 457 -52 562 -263 36 -73
43 -84 69 -114 18 -21 64 -58 72 -58 4 0 21 -7 37 -16 49 -27 169 -24 228 5
126 61 191 197 161 334 -22 103 -136 282 -253 398 -155 154 -324 243 -556 295
-60 13 -309 12 -390 -1z"/>
<path d="M2640 5234 c-36 -7 -78 -16 -93 -19 -15 -3 -56 -16 -90 -29 -360
-135 -604 -420 -687 -801 -19 -87 -19 -132 -17 -1585 1 -822 6 -1508 10 -1525
5 -16 15 -57 23 -90 25 -97 120 -304 153 -335 4 -3 21 -25 40 -50 159 -208
381 -340 671 -398 49 -10 3003 -9 3070 1 77 12 249 70 318 108 172 96 315 228
412 384 69 109 126 265 149 400 12 70 10 3026 -2 3065 -4 14 -9 37 -12 51 -17
92 -101 295 -141 340 -8 8 -14 19 -14 23 0 14 -65 91 -136 162 -160 160 -339
253 -574 298 -107 21 -2979 21 -3080 0z m2607 -1264 c34 -11 90 -47 118 -75
74 -73 100 -213 59 -311 -8 -19 -146 -210 -307 -422 -160 -213 -324 -431 -365
-486 -41 -54 -80 -106 -88 -115 -7 -9 -141 -185 -296 -391 -156 -207 -294
-389 -308 -406 -86 -106 -235 -139 -353 -80 -29 15 -77 50 -107 79 -57 53
-277 258 -340 317 -203 188 -285 269 -305 304 -55 95 -50 213 12 307 55 83
131 123 238 123 92 1 146 -21 212 -83 107 -101 296 -276 334 -311 34 -30 47
-36 55 -27 6 7 170 224 365 482 194 259 357 475 361 480 4 6 18 24 31 40 13
17 100 131 192 255 93 124 178 234 190 246 77 80 194 108 302 74z"/>
</g>
</svg>
